<?xml version="1.0" encoding="UTF-8"?>
<svg width="980px" height="820px" viewBox="0 0 980 820" version="1.1" xmlns="http://www.w3.org/2000/svg" xmlns:xlink="http://www.w3.org/1999/xlink">
    <!-- Generator: Sketch 52.4 (67378) - http://www.bohemiancoding.com/sketch -->
    <title>Group</title>
    <desc>Created with Sketch.</desc>
    <g id="Page-1" stroke="none" stroke-width="1" fill="none" fill-rule="evenodd">
        <g id="Group" transform="translate(490.000000, 409.800000) scale(-1, 1) rotate(-180.000000) translate(-490.000000, -409.800000) translate(0.000000, 0.300000)" fill="#404040">
            <path d="M455.98,817.83 C377.71,807.82 313.09,776.65 258.93,722.72 C229.35,693.14 206.6,660.15 192.26,626.47 C178.15,593.02 178.84,594.16 162.45,588.47 C98.3,566.4 43,512.93 17.07,447.86 C3.64,414.41 0,394.16 0,353.88 C0.23,322.03 0.91,314.74 6.37,294.72 C29.58,206.89 96.02,139.54 182.48,115.65 C198.41,111.1 207.28,110.64 276.23,109.96 L352.46,109.05 L370.66,127.25 L388.86,145.68 L370.88,163.65 L352.9,181.85 L279.86,182.53 L206.82,183.21 L188.62,189.58 C145.84,204.6 110.35,236 89.87,276.96 C76.91,302.92 72.58,322.94 72.81,356.16 C72.81,383.92 73.26,387.1 81,408.95 C91.24,438.53 100.34,453.55 121.05,475.85 C147.9,504.52 182.94,522.95 218.44,526.82 C226.18,527.73 233.68,529.1 235.05,530.01 C236.42,530.92 240.28,541.16 243.24,552.76 C266.9,640.82 327.88,706.35 411.84,733.88 C518.56,768.92 637.79,727.74 701.5,633.54 C717.88,608.97 730.4,579.16 740.41,540.02 C743.14,529.33 742,530.01 768.62,525.69 C802.98,520.23 832.33,504.3 858.27,476.77 C878.07,456.06 891.26,433.99 900.36,406.92 C906.51,387.81 907.19,382.8 907.42,356.18 C907.65,331.83 906.74,323.41 902.41,308.85 C886.03,251.95 845.75,208.72 791.6,189.6 L773.4,183.23 L700.36,182.55 L627.32,181.87 L609.35,163.67 L591.37,145.7 L609.57,127.27 L627.77,109.07 L703.99,109.98 C772.93,110.66 781.81,111.12 797.73,115.67 C851.89,130.46 897.39,161.4 931.3,206 C947.45,227.39 966.57,266.98 974.07,294.74 C979.31,314.99 979.99,321.59 979.99,355.04 C979.99,388.26 979.31,395.09 974.07,414.43 C959.51,469.49 930.16,515.46 888.29,549.13 C868.04,565.29 832.77,584.63 812.29,590.54 C801.14,593.73 800,594.63 797.5,603.74 C792.5,620.12 775.43,653.8 760.41,676.1 C741.07,705.22 702.62,743.68 673.04,763.02 C634.81,788.28 594.54,805.11 551.31,813.53 C532.89,817.15 472.37,819.88 455.98,817.83 Z" id="Path"></path>
            <polygon id="Path" points="368.84 266.97 344.49 242.4 392.73 194.16 441.19 145.7 392.73 97.24 344.49 49 368.84 24.43 393.41 0.08 441.65 48.32 490.11 96.78 538.57 48.32 586.81 0.08 611.38 24.43 635.73 49 587.5 97.22 539.04 145.68 587.5 194.14 635.74 242.38 611.39 266.95 586.82 291.3 538.58 243.06 490.12 194.59 441.66 243.06 393.42 291.3"></polygon>
        </g>
    </g>
</svg>